<mxfile host="drawio-plugin" modified="2024-01-11T17:11:48.430Z" agent="5.0 (Windows NT 6.2; Win64; x64) AppleWebKit/537.36 (KHTML, like Gecko) Chrome/104.0.5112.102 Safari/537.36" etag="4OUFemWQ605UcCSILPrQ" version="20.5.3" type="embed"><diagram id="gnQ6xD1R3z7te2mVrfLv" name="Page-1"><mxGraphModel dx="652" dy="563" grid="1" gridSize="10" guides="1" tooltips="1" connect="1" arrows="1" fold="1" page="1" pageScale="1" pageWidth="850" pageHeight="1100" math="0" shadow="0"><root><mxCell id="0"/><mxCell id="1" parent="0"/><mxCell id="17" value="«interface»&lt;br&gt;&lt;b&gt;Cuisine&lt;/b&gt;" style="html=1;fillColor=#60a917;fontColor=#ffffff;strokeColor=#2D7600;" vertex="1" parent="1"><mxGeometry x="280" y="20" width="135" height="30" as="geometry"/></mxCell><mxCell id="18" value="&lt;p style=&quot;margin: 4px 0px 0px;&quot;&gt;+ method:cook()&amp;nbsp; &amp;nbsp; &amp;nbsp; void&lt;br&gt;&lt;br&gt;&lt;/p&gt;" style="verticalAlign=top;align=left;overflow=fill;fontSize=12;fontFamily=Helvetica;html=1;fillColor=#6d8764;fontColor=#ffffff;strokeColor=#3A5431;" vertex="1" parent="1"><mxGeometry x="280" y="50" width="135" height="20" as="geometry"/></mxCell><mxCell id="19" value="GermanCuisine" style="swimlane;fontStyle=1;align=center;verticalAlign=top;childLayout=stackLayout;horizontal=1;startSize=26;horizontalStack=0;resizeParent=1;resizeParentMax=0;resizeLast=0;collapsible=1;marginBottom=0;fillColor=#1ba1e2;fontColor=#ffffff;strokeColor=#006EAF;" vertex="1" parent="1"><mxGeometry x="40" y="90" width="180" height="46" as="geometry"/></mxCell><mxCell id="25" value="&lt;p style=&quot;margin: 4px 0px 0px;&quot;&gt;+ method:cook()&amp;nbsp; &amp;nbsp; &amp;nbsp; void&lt;br&gt;&lt;br&gt;&lt;/p&gt;" style="verticalAlign=top;align=left;overflow=fill;fontSize=12;fontFamily=Helvetica;html=1;fillColor=#6d8764;fontColor=#ffffff;strokeColor=#3A5431;" vertex="1" parent="19"><mxGeometry y="26" width="180" height="20" as="geometry"/></mxCell><mxCell id="22" value="UkrainianCuisine" style="swimlane;fontStyle=1;align=center;verticalAlign=top;childLayout=stackLayout;horizontal=1;startSize=26;horizontalStack=0;resizeParent=1;resizeParentMax=0;resizeLast=0;collapsible=1;marginBottom=0;fillColor=#1ba1e2;fontColor=#ffffff;strokeColor=#006EAF;" vertex="1" parent="1"><mxGeometry x="450" y="90" width="180" height="46" as="geometry"/></mxCell><mxCell id="26" value="&lt;p style=&quot;margin: 4px 0px 0px;&quot;&gt;+ method:cook()&amp;nbsp; &amp;nbsp; &amp;nbsp; void&lt;br&gt;&lt;br&gt;&lt;/p&gt;" style="verticalAlign=top;align=left;overflow=fill;fontSize=12;fontFamily=Helvetica;html=1;fillColor=#6d8764;fontColor=#ffffff;strokeColor=#3A5431;" vertex="1" parent="22"><mxGeometry y="26" width="180" height="20" as="geometry"/></mxCell><mxCell id="28" value="" style="endArrow=block;dashed=1;endFill=0;endSize=12;html=1;rounded=0;fillColor=#60a917;strokeColor=#80FF00;exitX=0.722;exitY=0;exitDx=0;exitDy=0;exitPerimeter=0;" edge="1" parent="1" source="19"><mxGeometry width="160" relative="1" as="geometry"><mxPoint x="180" y="85" as="sourcePoint"/><mxPoint x="280" y="35" as="targetPoint"/><Array as="points"><mxPoint x="228.81999999999994" y="61.39999999999998"/></Array></mxGeometry></mxCell><mxCell id="29" value="" style="endArrow=block;dashed=1;endFill=0;endSize=12;html=1;rounded=0;fillColor=#60a917;strokeColor=#80FF00;exitX=0.5;exitY=0;exitDx=0;exitDy=0;entryX=1;entryY=0;entryDx=0;entryDy=0;" edge="1" parent="1" source="22" target="18"><mxGeometry width="160" relative="1" as="geometry"><mxPoint x="320" y="255" as="sourcePoint"/><mxPoint x="430.03999999999996" y="200" as="targetPoint"/><Array as="points"/></mxGeometry></mxCell><mxCell id="31" value="«abstractClass»&lt;br&gt;&lt;b&gt;DishToOrder&lt;/b&gt;" style="html=1;fillColor=#0000FF;fontColor=#ffffff;strokeColor=#006EAF;" vertex="1" parent="1"><mxGeometry x="280" y="210" width="180" height="30" as="geometry"/></mxCell><mxCell id="32" value="&lt;p style=&quot;margin: 4px 0px 0px;&quot;&gt;+ method:&amp;nbsp; &amp;nbsp;makeOrder()&lt;br&gt;&lt;br&gt;&lt;/p&gt;" style="verticalAlign=top;align=left;overflow=fill;fontSize=12;fontFamily=Helvetica;html=1;fillColor=#6d8764;fontColor=#ffffff;strokeColor=#3A5431;" vertex="1" parent="1"><mxGeometry x="280" y="262" width="180" height="20" as="geometry"/></mxCell><mxCell id="38" value="+ field:  cuisine               Cuisine" style="text;strokeColor=#432D57;fillColor=#76608a;align=left;verticalAlign=top;spacingLeft=4;spacingRight=4;overflow=hidden;rotatable=0;points=[[0,0.5],[1,0.5]];portConstraint=eastwest;fontColor=#ffffff;" vertex="1" parent="1"><mxGeometry x="280" y="240" width="180" height="22" as="geometry"/></mxCell><mxCell id="41" value="Borscht" style="swimlane;fontStyle=1;align=center;verticalAlign=top;childLayout=stackLayout;horizontal=1;startSize=26;horizontalStack=0;resizeParent=1;resizeParentMax=0;resizeLast=0;collapsible=1;marginBottom=0;fillColor=#1ba1e2;fontColor=#ffffff;strokeColor=#006EAF;" vertex="1" parent="1"><mxGeometry x="40" y="330" width="180" height="46" as="geometry"/></mxCell><mxCell id="47" value="&lt;p style=&quot;margin: 4px 0px 0px;&quot;&gt;+ method:&amp;nbsp; &amp;nbsp;makeOrder()&lt;br&gt;&lt;br&gt;&lt;/p&gt;" style="verticalAlign=top;align=left;overflow=fill;fontSize=12;fontFamily=Helvetica;html=1;fillColor=#6d8764;fontColor=#ffffff;strokeColor=#3A5431;" vertex="1" parent="41"><mxGeometry y="26" width="180" height="20" as="geometry"/></mxCell><mxCell id="44" value="Sausage" style="swimlane;fontStyle=1;align=center;verticalAlign=top;childLayout=stackLayout;horizontal=1;startSize=26;horizontalStack=0;resizeParent=1;resizeParentMax=0;resizeLast=0;collapsible=1;marginBottom=0;fillColor=#1ba1e2;fontColor=#ffffff;strokeColor=#006EAF;" vertex="1" parent="1"><mxGeometry x="470" y="330" width="180" height="46" as="geometry"/></mxCell><mxCell id="48" value="&lt;p style=&quot;margin: 4px 0px 0px;&quot;&gt;+ method:&amp;nbsp; &amp;nbsp;makeOrder()&lt;br&gt;&lt;br&gt;&lt;/p&gt;" style="verticalAlign=top;align=left;overflow=fill;fontSize=12;fontFamily=Helvetica;html=1;fillColor=#6d8764;fontColor=#ffffff;strokeColor=#3A5431;" vertex="1" parent="44"><mxGeometry y="26" width="180" height="20" as="geometry"/></mxCell><mxCell id="49" value="" style="endArrow=open;endFill=1;endSize=12;html=1;rounded=0;strokeColor=#3399FF;strokeWidth=4;exitX=0.5;exitY=0;exitDx=0;exitDy=0;entryX=0;entryY=0.5;entryDx=0;entryDy=0;" edge="1" parent="1" source="41" target="38"><mxGeometry width="160" relative="1" as="geometry"><mxPoint x="220" y="420" as="sourcePoint"/><mxPoint x="270" y="260" as="targetPoint"/></mxGeometry></mxCell><mxCell id="50" value="" style="endArrow=open;endFill=1;endSize=12;html=1;rounded=0;strokeColor=#3399FF;strokeWidth=4;entryX=1;entryY=0.5;entryDx=0;entryDy=0;exitX=0.841;exitY=-0.052;exitDx=0;exitDy=0;exitPerimeter=0;" edge="1" parent="1" source="44" target="38"><mxGeometry width="160" relative="1" as="geometry"><mxPoint x="600" y="320" as="sourcePoint"/><mxPoint x="286.4" y="253.60799999999995" as="targetPoint"/><Array as="points"/></mxGeometry></mxCell></root></mxGraphModel></diagram></mxfile>